<?xml version="1.0" standalone="no"?>
<!DOCTYPE svg PUBLIC "-//W3C//DTD SVG 20010904//EN"
 "http://www.w3.org/TR/2001/REC-SVG-20010904/DTD/svg10.dtd">
<svg version="1.0" xmlns="http://www.w3.org/2000/svg"
 width="225.000000pt" height="225.000000pt" viewBox="0 0 225.000000 225.000000"
 preserveAspectRatio="xMidYMid meet">
<metadata>
Created by potrace 1.16, written by Peter Selinger 2001-2019
</metadata>
<g transform="translate(0.000000,225.000000) scale(0.100000,-0.100000)"
fill="#000000" stroke="none">
<path d="M1398 2031 c-92 -20 -169 -52 -252 -102 l-49 -31 -66 21 c-124 38
-156 43 -266 44 -153 0 -177 -1 -171 -11 2 -4 -11 -8 -29 -8 -20 0 -72 -19
-129 -47 -152 -76 -252 -190 -307 -352 -20 -60 -24 -89 -24 -200 0 -130 18
-241 36 -229 6 3 7 -5 3 -20 -4 -17 -2 -26 6 -26 6 0 8 -5 5 -11 -9 -13 90
-214 149 -303 25 -38 46 -72 46 -75 0 -4 -9 -24 -20 -46 -24 -46 -25 -74 -6
-118 31 -76 145 -128 238 -109 l50 10 74 -54 c146 -104 283 -152 460 -161 120
-6 201 4 305 38 82 27 208 90 284 143 l60 41 57 -14 c53 -14 61 -14 105 5 92
38 126 161 70 256 l-26 46 29 53 c43 81 86 195 105 283 26 117 17 451 -15 551
-50 158 -142 275 -275 352 -148 85 -288 109 -447 74z m125 -331 c4 -14 14 -20
32 -20 43 0 124 -50 155 -95 15 -23 33 -60 40 -84 13 -49 15 -163 5 -235 -6
-36 -4 -50 6 -56 17 -11 -9 -98 -56 -188 l-33 -63 29 -15 c16 -8 29 -17 29
-20 0 -3 -51 21 -112 54 -62 33 -137 73 -166 89 -50 26 -53 30 -46 58 3 17 7
37 7 46 1 10 8 14 23 11 18 -3 23 3 33 42 16 64 14 201 -4 271 -9 33 -34 94
-57 135 -22 41 -35 70 -29 64 8 -8 26 -6 64 7 66 23 74 23 80 -1z m-704 -61
c17 -6 31 -15 31 -19 0 -16 -21 -65 -31 -71 -17 -10 -31 -139 -25 -221 8 -96
36 -188 77 -253 17 -27 27 -51 23 -52 -5 -2 -59 -31 -119 -66 -106 -60 -190
-101 -153 -75 15 11 15 14 -4 41 -15 20 -17 32 -10 39 8 8 1 29 -24 74 -19 34
-49 100 -66 146 -27 71 -32 97 -32 178 -1 107 10 137 73 203 71 76 174 106
260 76z m469 -883 c53 -36 108 -74 122 -86 l25 -22 -27 16 c-28 16 -58 13 -58
-8 0 -6 -7 -2 -15 8 -14 19 -15 19 -72 0 -41 -13 -87 -19 -156 -19 -72 0 -100
-4 -106 -14 -5 -7 -15 -11 -22 -9 -8 3 -23 -2 -34 -10 -12 -10 -9 -5 5 11 21
22 229 194 238 196 1 1 46 -28 100 -63z m441 -327 c-80 -61 -236 -135 -345
-164 -73 -20 -235 -30 -289 -18 -33 8 -24 9 55 9 158 0 359 65 488 158 l63 47
-23 19 c-16 14 -9 12 26 -7 l48 -26 -23 -18z"/>
</g>
</svg>
